<?xml version="1.0" encoding="UTF-8"?>
<svg width="98px" height="98px" viewBox="0 0 98 98" version="1.1" xmlns="http://www.w3.org/2000/svg" xmlns:xlink="http://www.w3.org/1999/xlink">
    <!-- Generator: Sketch 44.1 (41455) - http://www.bohemiancoding.com/sketch -->
    <title>features-icon-2.svg</title>
    <desc>Created with Sketch.</desc>
    <defs></defs>
    <g id="Page-1" stroke="none" stroke-width="1" fill="none" fill-rule="evenodd">
        <path d="M56.4323994,82.4571115 C93.3856204,67.7644213 107.572659,33.309785 91.3593494,18.4469152 C75.1444686,3.58387081 56.5674958,23.8495482 56.5674958,23.8495482 C56.4323994,23.8495482 37.8540303,3.58387081 21.6405459,18.4469152 C5.42741054,33.3080396 19.6144494,67.5942417 56.4323994,82.4571115 Z" id="Shape" fill="#EB427E" fill-rule="nonzero"></path>
        <g id="Group-2" transform="translate(1.000000, 8.000000)">
            <rect id="Rectangle" fill="#25ADDE" x="0" y="0" width="41.6666667" height="41.6666667" rx="6"></rect>
            <path d="M20.7826087,35.0035729 C15.695707,32.7435898 8,26.8422485 8,19.7826087 C8,12.7229689 13.7229689,7 20.7826087,7 C27.8422485,7 33.5652174,12.7229689 33.5652174,19.7826087 C33.5652174,26.8422485 26.8684125,32.3364172 20.7826087,35.0035729 Z M20.7826087,33.1034554 C26.0425363,30.798247 31.8305488,26.0496665 31.8305488,19.9480577 C31.8305488,13.8464488 26.8842176,8.90011751 20.7826087,8.90011751 C14.6809998,8.90011751 9.73466855,13.8464488 9.73466855,19.9480577 C9.73466855,26.0496665 16.3860269,31.1501641 20.7826087,33.1034554 Z M20.6098707,24.2737955 C18.1294567,24.2737955 16.1186839,22.2630227 16.1186839,19.7826087 C16.1186839,17.3021947 18.1294567,15.2914219 20.6098707,15.2914219 C23.0902847,15.2914219 25.1010576,17.3021947 25.1010576,19.7826087 C25.1010576,22.2630227 23.0902847,24.2737955 20.6098707,24.2737955 Z" id="Combined-Shape" fill="#FFFFFF"></path>
        </g>
        <g id="Group" transform="translate(56.000000, 48.000000)">
            <rect id="Rectangle" fill="#25ADDE" x="0" y="0" width="41.6666667" height="41.6666667" rx="6"></rect>
            <path d="M7.20616642,18.4064409 L19.2819615,7.74816127 C20.3320875,6.75061291 22.012194,6.75061291 23.0622606,7.74816127 L35.1381746,18.4589591 C35.5582013,18.8264675 35.2956698,19.5615438 34.718148,19.5615438 L32.1979883,19.5615438 L21.1721705,9.77740875 L10.1463528,19.5615438 L7.62619304,19.5615438 C7.04867131,19.5615438 6.7861398,18.8264675 7.20616642,18.4064409 Z M21.2101867,35 C17.6412265,33.3065616 13.3515229,28.3493831 13.3515229,24.0091629 C13.3515229,19.6689427 16.8699665,16.150499 21.2101867,16.150499 C25.5504069,16.150499 29.0688506,19.6689427 29.0688506,24.0091629 C29.0688506,28.3493831 24.7953573,33.3065616 21.2101867,35 Z M21.2640132,26.4851803 C22.8395726,26.4851803 24.1168158,25.207937 24.1168158,23.6323777 C24.1168158,22.0568183 22.8395726,20.779575 21.2640132,20.779575 C19.6884538,20.779575 18.4112106,22.0568183 18.4112106,23.6323777 C18.4112106,25.207937 19.6884538,26.4851803 21.2640132,26.4851803 Z" id="Combined-Shape" fill="#FFFFFF" fill-rule="nonzero"></path>
        </g>
    </g>
</svg>