<svg width="56" height="54" viewBox="0 0 56 54" fill="none" xmlns="http://www.w3.org/2000/svg">
<path d="M45.1572 22.1246H35.6215C35.7031 21.5985 35.744 21.0669 35.744 20.5346V10.3409C35.7409 7.5993 34.6504 4.97084 32.7118 3.03221C30.7732 1.09358 28.1447 0.00310066 25.4031 0H10.3409C7.59929 0.00310435 4.97083 1.09359 3.03221 3.03222C1.09358 4.97085 0.00310066 7.5993 0 10.3409V20.5345C0.00310434 23.2762 1.09359 25.9046 3.03221 27.8432C4.97084 29.7819 7.59929 30.8723 10.3409 30.8754H19.879C19.7963 31.4014 19.7545 31.933 19.7542 32.4655V42.6591C19.7573 45.4008 20.8477 48.0292 22.7864 49.9678C24.725 51.9064 27.3534 52.9969 30.095 53H45.1573C47.899 52.9969 50.5274 51.9064 52.466 49.9678C54.4046 48.0292 55.4951 45.4008 55.4982 42.6591V32.4655C55.4951 29.7238 54.4046 27.0954 52.466 25.1568C50.5273 23.2182 47.8989 22.1277 45.1572 22.1246ZM2.2287 20.5345V10.3409C2.23114 8.19019 3.0866 6.12824 4.60741 4.60744C6.12822 3.08664 8.19018 2.23119 10.3409 2.22877H25.4031C27.5538 2.23119 29.6158 3.08664 31.1366 4.60744C32.6574 6.12824 33.5128 8.1902 33.5152 10.3409V20.5345C33.5128 22.6853 32.6574 24.7472 31.1366 26.268C29.6158 27.7888 27.5538 28.6443 25.4031 28.6467H10.3409C8.19018 28.6443 6.12822 27.7888 4.60741 26.268C3.0866 24.7472 2.23114 22.6853 2.2287 20.5345ZM45.993 34.9706H43.2767C42.5355 37.6171 41.157 40.0415 39.2617 42.0318C40.2118 42.7912 41.2391 43.4486 42.3266 43.9932L43.8427 44.7544C43.9735 44.8201 44.0901 44.9108 44.1858 45.0216C44.2815 45.1323 44.3544 45.2608 44.4004 45.3997C44.4465 45.5386 44.4647 45.6852 44.4541 45.8312C44.4435 45.9772 44.4042 46.1196 44.3385 46.2504C44.2729 46.3812 44.1821 46.4977 44.0714 46.5934C43.9606 46.6891 43.8321 46.7621 43.6932 46.8081C43.5543 46.8542 43.4077 46.8724 43.2617 46.8618C43.1158 46.8511 42.9733 46.8119 42.8425 46.7462L41.3265 45.9849C40.004 45.3242 38.7609 44.5153 37.6211 43.574C36.4849 44.5154 35.2451 45.3243 33.9257 45.9849L32.4097 46.7461C32.1456 46.8788 31.8396 46.901 31.559 46.8081C31.2785 46.7151 31.0463 46.5144 30.9137 46.2503C30.7811 45.9862 30.7588 45.6802 30.8518 45.3996C30.9448 45.1191 31.1454 44.887 31.4095 44.7543L32.9255 43.9931C34.0105 43.4495 35.0351 42.7928 35.9821 42.034C34.8598 40.844 33.9123 39.5006 33.168 38.044C33.1016 37.9136 33.0615 37.7714 33.05 37.6255C33.0385 37.4796 33.0559 37.3329 33.1011 37.1937C33.1463 37.0545 33.2185 36.9256 33.3135 36.8143C33.4086 36.7031 33.5246 36.6116 33.655 36.5451C33.7854 36.4787 33.9276 36.4386 34.0734 36.4271C34.2193 36.4156 34.3661 36.4329 34.5053 36.4782C34.6444 36.5234 34.7734 36.5956 34.8846 36.6906C34.9959 36.7856 35.0874 36.9017 35.1539 37.0321C35.806 38.3073 36.6369 39.4829 37.6214 40.5231C39.13 38.9429 40.2672 37.046 40.9499 34.9706H29.2592C28.9636 34.9706 28.6802 34.8532 28.4712 34.6442C28.2622 34.4352 28.1448 34.1518 28.1448 33.8562C28.1448 33.5607 28.2622 33.2772 28.4712 33.0682C28.6802 32.8592 28.9636 32.7418 29.2592 32.7418H36.5118V29.3744C36.5118 29.0788 36.6292 28.7954 36.8382 28.5864C37.0472 28.3774 37.3306 28.26 37.6262 28.26C37.9217 28.26 38.2052 28.3774 38.4142 28.5864C38.6232 28.7954 38.7406 29.0788 38.7406 29.3744V32.7418H45.993C46.2886 32.7418 46.572 32.8592 46.781 33.0682C46.99 33.2772 47.1074 33.5607 47.1074 33.8562C47.1074 34.1518 46.99 34.4352 46.781 34.6442C46.572 34.8532 46.2886 34.9706 45.993 34.9706Z" fill="#25ADDE"/>
<path d="M19.8658 9.45107C19.5019 8.551 18.7379 7.99183 17.872 7.99183C17.0061 7.99183 16.2421 8.551 15.8782 9.45114L11.0675 21.3516C11.0127 21.4873 10.9851 21.6324 10.9864 21.7788C10.9876 21.9251 11.0177 22.0698 11.0748 22.2045C11.132 22.3392 11.2151 22.4614 11.3195 22.5639C11.4239 22.6665 11.5474 22.7476 11.6831 22.8024C11.8188 22.8572 11.9639 22.8848 12.1103 22.8836C12.2566 22.8823 12.4013 22.8523 12.536 22.7951C12.6707 22.7379 12.7928 22.6548 12.8954 22.5504C12.998 22.4461 13.079 22.3225 13.1339 22.1869L14.9374 17.7253H20.8065L22.6101 22.1869C22.6646 22.3229 22.7455 22.4469 22.848 22.5517C22.9506 22.6565 23.0728 22.74 23.2077 22.7975C23.3426 22.855 23.4875 22.8852 23.6341 22.8866C23.7807 22.888 23.9261 22.8604 24.0621 22.8054C24.198 22.7505 24.3218 22.6693 24.4262 22.5664C24.5307 22.4635 24.6139 22.3411 24.671 22.206C24.728 22.071 24.7579 21.926 24.7588 21.7794C24.7597 21.6327 24.7317 21.4874 24.6764 21.3516L19.8658 9.45107ZM15.8384 15.4965L17.872 10.4658L19.9056 15.4965H15.8384Z" fill="#EB427E"/>
</svg>
