<?xml version="1.0" encoding="utf-8"?>
<!-- Generator: Adobe Illustrator 25.2.1, SVG Export Plug-In . SVG Version: 6.00 Build 0)  -->
<svg version="1.1" xmlns="http://www.w3.org/2000/svg" xmlns:xlink="http://www.w3.org/1999/xlink" x="0px" y="0px"
	 viewBox="0 0 496.4 500" style="enable-background:new 0 0 496.4 500;" xml:space="preserve">
<style type="text/css">
	.st0{fill:#B1B4C4;}
	.st1{fill:#616E84;}
	.st2{fill:#20232D;}
	.st3{fill:#FFFFFF;}
	.st4{fill:#2B303F;}
	.st5{opacity:0.1;fill:#FFFFFF;enable-background:new    ;}
	.st6{fill:#757B89;}
	.st7{fill:#E9EAF2;}
	.st8{fill:#CED0DB;}
	.st9{opacity:0.4;fill:#D6D8E5;enable-background:new    ;}
	.st10{fill:#FFCEA9;}
	.st11{fill:#EDEDED;}
	.st12{fill:#2C3542;}
	.st13{fill:#445466;}
	.st14{fill:#1DC0E1;}
	.st15{fill:#F4F4F4;}
	.st16{fill:#D6D8E5;}
	.st17{fill:#E4E6EF;}
	.st18{fill:#28221C;}
	.st19{fill:#99B524;}
	.st20{fill:#A6CE28;}
	.st21{fill:#D9DCE8;}
	.st22{fill:#EFF1F9;}
</style>
<g id="Layer_1">
	<path class="st0" d="M418.5,409.3L310.6,347c-9.1-5.3-16.5-19.4-16.5-31.6V14.5c0-12.2,7.4-17.8,16.5-12.5l107.9,62.3
		c9.1,5.3,16.5,19.4,16.5,31.6v300.9C435.1,409,427.6,414.6,418.5,409.3z"/>
	<polygon class="st0" points="420.4,414.8 428.9,410.4 420.7,396.4 	"/>
	<polygon class="st0" points="292.4,5 300.3,0.9 298.7,12.5 	"/>
	<path class="st1" d="M411.6,412.8l-107.9-62.3c-9.1-5.3-16.5-19.4-16.5-31.6V17.9c0-12.2,7.4-17.8,16.5-12.5l107.9,62.3
		c9.1,5.3,16.5,19.4,16.5,31.6v300.9C428.2,412.5,420.8,418,411.6,412.8z"/>
	<path class="st2" d="M427,100.1V401c0,12.2-7.4,17.8-16.5,12.5l-42.3-24.4l-13.1-7.6l-52.4-30.3c-9.1-5.3-16.5-19.4-16.5-31.6V18.7
		c0-12.2,7.4-17.8,16.5-12.5l107.9,62.3C419.6,73.8,427,87.9,427,100.1z"/>
	<path class="st3" d="M419.2,97v293.1c0,7.4-5.2,10.4-11.6,6.7L374,377.4l-3-1.7l-1-0.6l-7.3-4.2l-21.1-12.2l0,0l-8.8-5l-3.5-2
		l-23.9-13.8c-6.4-3.7-11.6-12.7-11.6-20.1V24.6c0-7.4,5.2-10.4,11.6-6.7l42.1,24.3v0.1c0,5.8,4,12.7,9,15.6s9,0.5,9-5.2
		c0,0,0-0.1,0-0.1L407.7,77C414.1,80.7,419.2,89.7,419.2,97z"/>
	<ellipse transform="matrix(0.866 -0.5 0.5 0.866 22.3829 185.0805)" class="st4" cx="356.6" cy="50.8" rx="2.8" ry="4.8"/>
	<path class="st5" d="M356.5,52.4c-0.9-0.6-1.4-1.5-1.4-2.5c0-0.9,0.6-1.3,1.4-0.8c0.9,0.5,1.4,1.5,1.5,2.5
		C358,52.5,357.3,52.9,356.5,52.4z"/>
	<path class="st6" d="M431.4,139.7L431.4,139.7c-0.9,0.5-1.6,0-1.6-1.2v-12.8c0-1.2,0.6-2.3,1.6-3l0,0c0.9-0.5,1.6,0,1.6,1.2v12.8
		C433,137.9,432.4,139,431.4,139.7z"/>
	<path class="st6" d="M431.4,160.7L431.4,160.7c-0.9,0.5-1.6,0-1.6-1.2v-12.8c0-1.2,0.6-2.3,1.6-3.1l0,0c0.9-0.5,1.6,0,1.6,1.2v12.8
		C433,158.9,432.4,160,431.4,160.7z"/>
	<path class="st7" d="M399,371.8l-84.9-49c-4.4-2.5-8-9.4-8-15.2V150c0-5.9,3.6-8.6,8-6l84.9,49c4.4,2.6,8,9.4,8,15.2v157.6
		C407,371.6,403.4,374.3,399,371.8z"/>
	<ellipse transform="matrix(0.866 -0.5 0.5 0.866 -51.4392 193.611)" class="st8" cx="335.6" cy="192.8" rx="13" ry="22.6"/>
	<polygon class="st8" points="394,224.4 361.2,205.5 361.2,197.8 394,216.7 	"/>
	<polygon class="st8" points="386.4,233.9 361.2,219.3 361.2,211.6 386.4,226.2 	"/>
	<polygon class="st8" points="394,268.7 319.6,225.8 319.6,218.1 394,261.1 	"/>
	<polygon class="st8" points="376.8,272.6 319.6,239.6 319.6,231.9 376.8,265 	"/>
	<polygon class="st8" points="393.7,296.2 319.4,253.3 319.4,245.6 393.7,288.5 	"/>
	<polygon class="st8" points="376.6,300.1 319.4,267.1 319.4,259.4 376.6,292.5 	"/>
	<polygon class="st8" points="393.7,323.9 319.4,280.9 319.4,273.2 393.7,316.2 	"/>
	<polygon class="st8" points="393.1,351.1 318.7,308.2 318.7,300.5 393.1,343.4 	"/>
	<polygon class="st8" points="376.6,327.8 319.4,294.7 319.4,287.1 376.6,320.1 	"/>
	<g id="Men_2">
		<ellipse class="st9" cx="169.8" cy="450.9" rx="49.5" ry="28.6"/>
		<path id="_Контур_6" class="st10" d="M134.6,239.1c-0.6,4.8-6.3,25.6-5.1,32.7s20.8,19,20.8,19l2.7-12.2L142.2,268l2.9-20.1
			L134.6,239.1z"/>
		<path id="_Контур_7" class="st11" d="M149.7,218.6c-2.8-1.2-8-1.5-10.9,3.3s-5.9,21.2-6.1,24c0,0,4.1,5.6,10.1,4.7
			L149.7,218.6z"/>
		<path class="st12" d="M172.1,450c4.3,1.2,8.8,0.6,12.7-1.5c3.1,0.1,19.6-7,21.9-1c2,5.2-5.2,10.1-9.1,11c-8.4,2-14.6,6.2-17.9,6.9
			c-2.5,0.5-5.8,0.9-7.8-1.1C169.6,461.9,169.8,453.1,172.1,450z"/>
		<path class="st13" d="M179.7,463.9c3.4-0.7,9.6-4.9,17.9-6.9c3.2-0.8,8.8-4.3,9.3-8.5c0.7,4.8-5.7,9.1-9.3,9.9
			c-8.4,2-14.6,6.2-17.9,6.9c-2.5,0.5-5.8,0.9-7.8-1.1c-0.5-0.6-0.9-1.3-1.1-2C173.8,464.7,177.2,464.4,179.7,463.9z"/>
		<path class="st12" d="M145.2,437.9c4.3,1.2,8.8,0.6,12.7-1.5c3.1,0.1,19.6-7,21.9-1c2,5.2-5.2,10.1-9.1,11
			c-8.4,2-14.6,6.2-17.9,6.9c-2.5,0.5-5.8,0.9-7.8-1.1C142.7,449.8,142.9,441,145.2,437.9z"/>
		<path class="st13" d="M152.8,451.8c3.4-0.7,9.6-4.9,17.9-6.9c3.2-0.8,8.8-4.3,9.3-8.5c0.8,4.8-5.7,9.1-9.3,9.9
			c-8.4,2-14.6,6.2-17.9,6.9c-2.5,0.5-5.8,0.9-7.8-1.1c-0.5-0.6-0.9-1.3-1.1-2C146.9,452.6,150.3,452.3,152.8,451.8z"/>
		<path id="_Контур_8" class="st14" d="M144.9,392.9c0.7-6.2,2-12.2,3.8-18.2c0,0-1.1-15.7-1.7-30.5
			c-0.6-16.9-6.5-31.7-1.9-45.2l52.1,11.6c0,0-3.1,67.3-3.9,75.4c-0.4,6.3-1.2,12.6-2.3,18.9c-2.4,13.1-6.2,44.1-6.2,44.1
			c-5.5,3.2-12.7,1.4-12.7,1.4s0.4-39.3,0.8-48.7c0.4-11.5,0.8-10.6,0.8-10.6l-1.7-28.6l-1.1-14.2c0,0-1.4,10.5-2.4,19.8
			c-0.8,8.1-2.8,15.5-5,30.6c-1.9,13.1-5,39.5-5,39.5c-5.5,3.2-13,0.5-13,0.5S143.4,404.3,144.9,392.9z"/>
		<path id="_Контур_9" class="st10" d="M152.5,218.9c4,0.2,6.9,1.2,7.4,0c0.4-2,0.7-4.1,0.9-6.2c-0.5-1.1-0.9-2.4-0.9-2.4
			c-5-3.1-6.6-8.4-7.2-14.7c-1.1-10.7,4.7-20.1,15.4-21.2c10.1-1,17.5,6,19.4,15.8c1.1,4.8,3.2,13.9,0.3,21.8
			c-1.6,4.4-3.7,7.9-5.7,8.6c-2-0.1-4-0.2-5.9-0.5l0,0c0,0-0.5,3-0.9,4.9s-0.2,2.9,3.6,5.3s-5.8,7.1-12,6.7s-13.2-4.2-15.2-8.3
			C149.6,224.1,149.8,218.8,152.5,218.9z"/>
		<path id="_Контур_10" class="st15" d="M158.2,219.5c-1.1,2.7,1.7,6.1,9.1,8.4s8.1-0.7,8.1-0.7s10.9,5,14.5,7.4
			c4.5,3.1,6.4,12.2,7.1,27.4c0.7,17.7,0.8,43.9,0.2,48.4c0,0-8.4,8.3-19,7.4s-28.7-10.3-33-17.6c0.1-15.5,1.9-18-0.6-26.9
			c-5.7-20.4-8.8-28.8-6-42.4c2.3-11.2,5.5-12.6,9.9-12.5C151.8,218.7,155,219,158.2,219.5z"/>
		<path id="_Контур_11" class="st10" d="M213.8,276.8c-8.8,2.2-10.8-3.3-12-7.9c-2.8-11.1-4.3-21.1-6.4-27.4
			c-2.4-7.4-5-8.6-8.6-10.1c-4.2-1.7-7.9,1.9-6.5,11.3c1.7,11.2,3.9,19,8,32.2c1.1,3.5,3.5,9.6,7.2,12.5c4.5,3.7,11.3,3.5,21.6,0.9
			c4.4-1.1,9.2-3.7,17.5-7.6c2.2-1,4-1.7,8.2-3.7s8.8-5.3,11-8.6s2.5-4.8,2.1-5.5c-0.6-0.9-1.6-0.7-2.8,0.6
			c-1.7,2.3-3.9,4.3-6.3,5.8c0,0,2.8-2.9,4.3-4.7c1.3-1.6,2.5-3.5,3.3-5.4c0.8-1.9-0.8-4.5-2.1-3.1s-1.8,2.7-4.1,5.5
			c-1.2,1.4-2.6,2.7-4.1,3.9c1.4-1.9,2.7-3.9,3.8-6c1.4-2.9,1.4-4.4,1.4-5.4s-1.5-2.2-2.8-0.3c-1.2,1.7-2,4.3-4.7,7.2
			c-2,2.1-3.7,3.3-3.8,2.7s1.2-1.7,1.9-4.1s0-5-1.3-5.3s-1.1-0.2-2.2,2.1s-2.7,3.9-4,7.2c-1.1,2.9-1.6,4.1-3.6,6.2
			C226.9,272.1,222.1,274.7,213.8,276.8z"/>
		<path id="_Контур_12" class="st11" d="M183.6,229.9c5.9-0.9,10,1.8,12.6,10.6s4.4,16.2,4.4,16.2c-2.3,3.3-5.8,5.7-9.8,6.5
			c-7,1.7-9.5-1.6-9.5-1.6s-2-9.3-3.2-15.6S176.3,231,183.6,229.9z"/>
		<path class="st12" d="M187.2,188.8c0,0,9.3-14.1-10.8-16.9c-14.5-2.1-23.8,7.2-24.8,17.3c-1,9.6,4.9,19.6,9.2,23.6
			c2.1,0.8,6.6,1.2,12.5-1.5c0.2-2.6,0.3-5.3,0.3-7.9C173.6,203.4,166.5,188.6,187.2,188.8z"/>
	</g>
	<ellipse class="st9" cx="54.6" cy="348.4" rx="24" ry="13.9"/>
	<ellipse class="st16" cx="58" cy="345.8" rx="24" ry="13.9"/>
	<polygon class="st16" points="25.9,298.5 34.3,346.8 81.9,346.8 90.1,298.8 	"/>
	<ellipse class="st17" cx="58" cy="297.9" rx="32.1" ry="18.5"/>
	<path class="st18" d="M58,312.3c-7.9,0-15.2-1.7-20.7-4.9c-4.7-2.7-7.4-6.2-7.4-9.6s2.7-6.9,7.4-9.6c5.5-3.1,12.8-4.9,20.7-4.9
		s15.2,1.7,20.7,4.9c4.7,2.7,7.4,6.2,7.4,9.6s-2.7,6.9-7.4,9.6C73.2,310.6,65.9,312.3,58,312.3z"/>
	<path class="st19" d="M71.8,283.2c0,0-0.6-39.2-13.8-53c-16.1,14.2-13.6,53.1-13.6,53.1l13.8,25l0,0
		C60,308.4,71.8,283.2,71.8,283.2z"/>
	<path class="st20" d="M58.2,308.3c0,0-7.3-46.9-34.6-64.6C23.6,243.7,18.8,308,58.2,308.3z"/>
	<path class="st20" d="M58,308.3c0,0,6.6-46,33.2-62.6C91.2,245.7,97.4,308,58,308.3z"/>
	<ellipse class="st21" cx="472.4" cy="446.4" rx="24" ry="13.8"/>
	<path class="st21" d="M448.5,446.2c0-0.1,0-7,0-7l7.6,2.6L448.5,446.2z"/>
	<polygon class="st21" points="496.4,439.8 496.4,446 487.6,444.3 	"/>
	<ellipse class="st22" cx="472.4" cy="439.3" rx="24" ry="13.8"/>
	<ellipse class="st16" cx="472.7" cy="438.6" rx="15.5" ry="9"/>
	<polygon class="st16" points="452,408 457.4,439.3 488.2,439.3 493.5,408.2 	"/>
	<ellipse class="st17" cx="472.7" cy="407.6" rx="20.8" ry="12"/>
	<path class="st18" d="M472.7,417c-5.1,0-9.8-1.1-13.4-3.2c-3-1.8-4.8-4-4.8-6.2c0-2.2,1.7-4.4,4.8-6.2c3.5-2,8.3-3.2,13.4-3.2
		s9.9,1.1,13.4,3.2c3,1.7,4.8,4,4.8,6.2c0,2.2-1.7,4.4-4.8,6.2C482.6,415.8,477.8,417,472.7,417z"/>
	<path class="st19" d="M481.7,398.1c0,0-0.4-25.4-9-34.3c-10.4,9.2-8.8,34.4-8.8,34.4l8.9,16.2l0,0
		C474,414.4,481.7,398.1,481.7,398.1z"/>
	<path class="st20" d="M472.9,414.3c0,0-4.7-30.4-22.4-41.8C450.5,372.5,447.3,414.2,472.9,414.3z"/>
	<path class="st20" d="M472.7,414.3c0,0,4.3-29.8,21.5-40.5C494.2,373.8,498.3,414.2,472.7,414.3z"/>
</g>
<g id="Layer_2">
	
		<image style="overflow:visible;" width="224" height="677" xlink:href="feature-short.png"  transform="matrix(0.5629 0 0 0.5629 293.1647 16.7414)">
	</image>
</g>
</svg>
