<svg width="176px" height="45px" version="1.1" viewBox="0 0 176 45" xmlns="http://www.w3.org/2000/svg"><title>Untitled 2</title><desc>Created with Sketch.</desc><g stroke-width="1.1309" aria-label="Houzi"><path d="m61.814 6.3977h4.3426v13.299h16.601v-13.299h4.3426v32.026h-4.3426v-14.656h-16.601v14.656h-4.3426z"/><path d="m97.56 27.703q0 1.6285 0.49758 3.0307 0.49758 1.357 1.4023 2.3522 0.9047 0.94994 2.2165 1.538 1.3118 0.54282 2.9403 0.54282t2.9403-0.54282q1.3118-0.58806 2.2165-1.538 0.9047-0.99517 1.4023-2.3522 0.49758-1.4023 0.49758-3.0307t-0.49758-2.9855q-0.49759-1.4023-1.4023-2.3522-0.9047-0.99517-2.2165-1.538-1.3118-0.58806-2.9403-0.58806t-2.9403 0.58806q-1.3118 0.54282-2.2165 1.538-0.9047 0.94994-1.4023 2.3522-0.49758 1.357-0.49758 2.9855zm-4.3426 0q0-2.3522 0.85946-4.3878 0.9047-2.0356 2.4427-3.5736t3.6188-2.3975q2.0808-0.9047 4.4783-0.9047 2.3975 0 4.4783 0.9047 2.0808 0.85946 3.6188 2.3975t2.3974 3.5736q0.9047 2.0356 0.9047 4.3878t-0.9047 4.433q-0.85946 2.0356-2.3974 3.5736-1.538 1.4928-3.6188 2.3975-2.0808 0.85946-4.4783 0.85946-2.3974 0-4.4783-0.85946-2.0808-0.9047-3.6188-2.3975-1.538-1.538-2.4427-3.5736-0.85946-2.0808-0.85946-4.433z"/><path d="m140.12 38.424h-4.0712v-3.3022h-0.0905q-0.769 1.7189-2.6689 2.8046-1.8999 1.0404-4.3878 1.0404-1.5832 0-2.9855-0.49758-1.4023-0.45235-2.4879-1.4475-1.0404-0.99517-1.6737-2.5332-0.63329-1.5832-0.63329-3.7093v-13.797h4.0712v12.666q0 1.4928 0.40711 2.5784 0.40712 1.0404 1.0856 1.7189 0.67853 0.63329 1.538 0.94994 0.9047 0.27141 1.8546 0.27141 1.2666 0 2.3522-0.40712t1.8999-1.2666q0.81423-0.9047 1.2666-2.2618t0.45235-3.2117v-11.037h4.0712z"/><path d="m144.8 34.76 12.168-14.249h-11.761v-3.5283h16.737v3.6188l-12.259 14.294h12.892v3.5283h-17.777z"/><path d="m167.55 16.983h4.0712v21.441h-4.0712zm-0.94993-7.69q0-1.2213 0.85946-2.0808 0.9047-0.9047 2.126-0.9047 1.2213 0 2.0808 0.9047 0.9047 0.85947 0.9047 2.0808 0 1.2213-0.9047 2.126-0.85947 0.85946-2.0808 0.85946-1.2214 0-2.126-0.85946-0.85946-0.9047-0.85946-2.126z"/></g><g fill-rule="evenodd"><rect width="45" height="45" rx="16" fill="#25adde"/><path d="m6.2394 19.369 14.022-12.376c1.2193-1.1583 3.1702-1.1583 4.3895 0l14.022 12.437c0.48771 0.42673 0.18287 1.2803-0.48771 1.2803h-2.9263l-12.803-11.361-12.803 11.361h-2.9263c-0.67058 0-0.97542-0.85353-0.48771-1.3412zm16.261 19.267c-4.1441-1.9663-9.125-7.7223-9.125-12.762s4.0854-9.125 9.125-9.125 9.125 4.0854 9.125 9.125-4.9621 10.796-9.125 12.762zm0.0625-9.8869c1.8294 0 3.3125-1.4831 3.3125-3.3125s-1.4831-3.3125-3.3125-3.3125-3.3125 1.4831-3.3125 3.3125 1.4831 3.3125 3.3125 3.3125z" fill="#fff" fill-rule="nonzero"/></g></svg>
